<svg width="97" height="58" viewBox="0 0 97 58" fill="none" xmlns="http://www.w3.org/2000/svg">
<path fill-rule="evenodd" clip-rule="evenodd" d="M21.66 47.38C25.5533 49.4066 30.1133 50.42 35.34 50.42V38.9C31.3133 38.9 28.1667 37.7 25.98 35.3C23.8467 32.8466 22.78 29.54 22.78 25.38C22.78 21.22 23.8467 17.9667 25.98 15.62C28.1667 13.22 31.3133 12.02 35.34 12.02L35.42 0.499985C30.1667 0.499985 25.5533 1.51332 21.66 3.53998C17.7667 5.56665 14.7533 8.44665 12.62 12.18C10.54 15.9133 9.5 20.3133 9.5 25.38C9.5 30.5 10.5667 34.9266 12.7 38.66C14.8333 42.3933 17.82 45.3 21.66 47.38Z" fill="#0D0D0D" style="fill:#0D0D0D;fill:color(display-p3 0.0510 0.0510 0.0510);fill-opacity:1;"/>
<path fill-rule="evenodd" clip-rule="evenodd" d="M71.4325 50.42C77.2458 50.42 83.4059 48.7667 87.5125 45.46C91.6192 42.1533 94.1525 37.5667 95.1125 31.7H81.7525C80.5258 36.5 76.0192 38.9 71.4325 38.9V50.42ZM87.1125 5.29998C83.0058 2.09998 77.1125 0.499985 71.4325 0.499985V12.02C74.5258 12.02 76.2058 12.58 77.9125 13.7C79.6192 14.82 80.8192 16.42 81.5125 18.5H94.8725C93.8058 12.9 91.2192 8.49998 87.1125 5.29998Z" fill="#0D0D0D" style="fill:#0D0D0D;fill:color(display-p3 0.0510 0.0510 0.0510);fill-opacity:1;"/>
<path fill-rule="evenodd" clip-rule="evenodd" d="M35.34 50.42V38.9C39.3667 38.9 42.4066 37.7267 44.54 35.3C46.6734 32.8733 47.74 29.54 47.74 25.38C47.74 21.22 46.6734 17.9934 44.54 15.62C42.4066 13.2466 39.3667 12.02 35.34 12.02L35.42 0.499985H71.4325V12.02C68.3392 12.02 64.9525 13.1933 62.7925 15.54C60.6325 17.8867 59.5925 21.1933 59.5925 25.46C59.5925 29.7267 60.6858 33.0333 62.8725 35.38C65.0592 37.7267 66.8458 38.9 71.4325 38.9V50.42H35.34Z" fill="#0D0D0D" style="fill:#0D0D0D;fill:color(display-p3 0.0510 0.0510 0.0510);fill-opacity:1;"/>
<path fill-rule="evenodd" clip-rule="evenodd" d="M30.5634 7.54732H26.42C21.1667 7.54732 16.5533 8.56066 12.66 10.5873C8.76667 12.614 5.75333 15.494 3.62 19.2273C1.54 22.9607 0.5 27.3607 0.5 32.4273C0.5 37.5473 1.56667 41.974 3.7 45.7073C5.83334 49.4406 8.82001 52.3473 12.66 54.4273C16.5533 56.454 21.1133 57.4673 26.34 57.4673H62.4325C68.2458 57.4673 74.4059 55.814 78.5125 52.5073C79.1893 51.9624 79.8234 51.3827 80.4147 50.7682C83.4114 47.6541 85.3107 43.6471 86.1125 38.7473H72.7525C71.5258 43.5473 67.0192 45.9473 62.4325 45.9473C57.8458 45.9473 56.0592 44.774 53.8725 42.4273C51.6858 40.0806 50.5925 36.774 50.5925 32.5073C50.5925 31.6445 50.635 30.8209 50.7208 30.0365C51.0589 26.9425 52.0693 24.4594 53.7925 22.5873C54.5215 21.7954 55.3901 21.1371 56.34 20.6124C58.2049 19.5823 60.3831 19.0673 62.4325 19.0673C65.5258 19.0673 67.2058 19.6273 68.9125 20.7473C70.6192 21.8673 71.8192 23.4673 72.5125 25.5473H85.8725C85.2917 22.4982 84.2603 19.8049 82.7783 17.4673C81.5384 15.5117 79.9832 13.805 78.1125 12.3473C75.4875 10.3019 72.1325 8.91015 68.5699 8.17216C66.5589 7.7556 64.4818 7.54732 62.4325 7.54732H55.34H43.8794H30.5634ZM26.34 45.9473C30.3667 45.9473 33.4066 44.774 35.54 42.3473C37.6734 39.9206 38.74 36.5873 38.74 32.4273C38.74 28.2673 37.6734 25.0407 35.54 22.6673C33.4066 20.2939 30.3667 19.0673 26.34 19.0673C22.3133 19.0673 19.1667 20.2673 16.98 22.6673C14.8467 25.014 13.78 28.2673 13.78 32.4273C13.78 36.5873 14.8467 39.894 16.98 42.3473C19.1667 44.7473 22.3133 45.9473 26.34 45.9473Z" fill="#E4B600" style="fill:#E4B600;fill:color(display-p3 0.8942 0.7154 0.0000);fill-opacity:1;"/>
<path d="M26.42 7.54732H30.5634H43.8794H55.34H62.4325C64.4818 7.54732 66.5589 7.7556 68.5699 8.17216C72.1325 8.91015 75.4875 10.3019 78.1125 12.3473L88 5.54732C83.6 1.54732 75.8333 0.547321 72.5 0.547321H36.5C31.3 0.147321 25 2.38065 22.5 3.54732L12.66 10.5873C16.5533 8.56066 21.1667 7.54732 26.42 7.54732Z" fill="#E4B600" style="fill:#E4B600;fill:color(display-p3 0.8942 0.7154 0.0000);fill-opacity:1;"/>
<path d="M78.1125 12.3473C79.9832 13.805 81.5384 15.5117 82.7783 17.4673L92.5 10.5473C90.9 7.74732 88.8333 6.04732 88 5.54732L78.1125 12.3473Z" fill="#E4B600" style="fill:#E4B600;fill:color(display-p3 0.8942 0.7154 0.0000);fill-opacity:1;"/>
<path d="M82.7783 17.4673C84.2603 19.8049 85.2917 22.4982 85.8725 25.5473L95.5 18.5473C95.1 14.9473 93.3333 11.714 92.5 10.5473L82.7783 17.4673Z" fill="#E4B600" style="fill:#E4B600;fill:color(display-p3 0.8942 0.7154 0.0000);fill-opacity:1;"/>
<path d="M72.7525 38.7473H86.1125L95.5 31.5473H83L72.7525 38.7473Z" fill="#E4B600" style="fill:#E4B600;fill:color(display-p3 0.8942 0.7154 0.0000);fill-opacity:1;"/>
<path d="M86.1125 38.7473C85.3107 43.6471 83.4114 47.6541 80.4147 50.7682L88 45.5473C90.5 43.714 95.5 38.3473 95.5 31.5473L86.1125 38.7473Z" fill="#E4B600" style="fill:#E4B600;fill:color(display-p3 0.8942 0.7154 0.0000);fill-opacity:1;"/>
<path d="M12.66 10.5873C16.5533 8.56066 21.1667 7.54732 26.42 7.54732H30.5634H43.8794H55.34H62.4325C64.4818 7.54732 66.5589 7.7556 68.5699 8.17216C72.1325 8.91015 75.4875 10.3019 78.1125 12.3473M12.66 10.5873C8.76667 12.614 5.75333 15.494 3.62 19.2273C1.54 22.9607 0.5 27.3607 0.5 32.4273C0.5 37.5473 1.56667 41.974 3.7 45.7073C5.83334 49.4406 8.82001 52.3473 12.66 54.4273C16.5533 56.454 21.1133 57.4673 26.34 57.4673H62.4325C68.2458 57.4673 74.4059 55.814 78.5125 52.5073M12.66 10.5873L22.5 3.54732C25 2.38065 31.3 0.147321 36.5 0.547321H72.5C75.8333 0.547321 83.6 1.54732 88 5.54732M78.5125 52.5073L80.4147 50.7682M78.5125 52.5073C79.1893 51.9624 79.8234 51.3827 80.4147 50.7682M86.1125 38.7473H72.7525M86.1125 38.7473L95.5 31.5473M86.1125 38.7473C85.3107 43.6471 83.4114 47.6541 80.4147 50.7682M72.7525 38.7473C71.5258 43.5473 67.0192 45.9473 62.4325 45.9473C57.8458 45.9473 56.0592 44.774 53.8725 42.4273C51.6858 40.0806 50.5925 36.774 50.5925 32.5073C50.5925 31.6445 50.635 30.8209 50.7208 30.0365C51.0589 26.9425 52.0693 24.4594 53.7925 22.5873C54.5215 21.7954 55.3901 21.1371 56.34 20.6124C58.2049 19.5823 60.3831 19.0673 62.4325 19.0673C65.5258 19.0673 67.2058 19.6273 68.9125 20.7473C70.6192 21.8673 71.8192 23.4673 72.5125 25.5473H85.8725M72.7525 38.7473L83 31.5473H95.5M85.8725 25.5473C85.2917 22.4982 84.2603 19.8049 82.7783 17.4673M85.8725 25.5473L95.5 18.5473C95.1 14.9473 93.3333 11.714 92.5 10.5473M82.7783 17.4673C81.5384 15.5117 79.9832 13.805 78.1125 12.3473M82.7783 17.4673L92.5 10.5473M78.1125 12.3473L88 5.54732M88 5.54732C88.8333 6.04732 90.9 7.74732 92.5 10.5473M95.5 31.5473C95.5 38.3473 90.5 43.714 88 45.5473L80.4147 50.7682M26.34 45.9473C30.3667 45.9473 33.4066 44.774 35.54 42.3473C37.6734 39.9206 38.74 36.5873 38.74 32.4273C38.74 28.2673 37.6734 25.0407 35.54 22.6673C33.4066 20.2939 30.3667 19.0673 26.34 19.0673C22.3133 19.0673 19.1667 20.2673 16.98 22.6673C14.8467 25.014 13.78 28.2673 13.78 32.4273C13.78 36.5873 14.8467 39.894 16.98 42.3473C19.1667 44.7473 22.3133 45.9473 26.34 45.9473Z" stroke="#0D0D0D" style="stroke:#0D0D0D;stroke:color(display-p3 0.0510 0.0510 0.0510);stroke-opacity:1;"/>
</svg>
