<svg width="400" height="120" viewBox="0 0 400 120" fill="none" xmlns="http://www.w3.org/2000/svg">
<path d="M6.8 96V31.2H37.6C44.9067 31.2 50.5867 33.04 54.64 36.72C58.6933 40.4 60.72 45.44 60.72 51.84C60.72 58.1867 58.6933 63.2267 54.64 66.96C50.5867 70.64 44.9067 72.48 37.6 72.48H20.32V96H6.8ZM20.32 60.72H36.8C40.16 60.72 42.72 59.9467 44.48 58.4C46.24 56.8 47.12 54.6133 47.12 51.84C47.12 49.0133 46.24 46.8267 44.48 45.28C42.72 43.7333 40.16 42.96 36.8 42.96H20.32V60.72ZM74.2662 96V61.12H67.7062V48H81.1462V57.44H84.5062C85.7862 54.08 87.8129 51.5733 90.5862 49.92C93.3596 48.2667 96.4796 47.44 99.9462 47.44H104.026V58.96H99.3862C95.2262 58.96 92.1596 60.1333 90.1862 62.48C88.2662 64.8267 87.3062 67.92 87.3062 71.76V96H74.2662ZM226.813 96C223.399 96 220.733 95.1467 218.813 93.44C216.946 91.68 216.013 89.0133 216.013 85.44V58.4H207.773V48H216.173V33.6H229.133V48H240.253V58.4H229.293V85.6H241.373V96H226.813ZM273.35 96.96C268.177 96.96 263.67 95.9467 259.83 93.92C255.99 91.84 253.03 88.9333 250.95 85.2C248.87 81.4133 247.83 76.96 247.83 71.84C247.83 66.72 248.843 62.32 250.87 58.64C252.897 54.9067 255.777 52.0533 259.51 50.08C263.297 48.0533 267.75 47.04 272.87 47.04C277.883 47.04 282.177 48 285.75 49.92C289.377 51.84 292.15 54.5867 294.07 58.16C295.99 61.7333 296.95 66 296.95 70.96V75.44H260.55C261.083 79.0133 262.443 81.7333 264.63 83.6C266.817 85.4667 269.697 86.4 273.27 86.4C276.097 86.4 278.337 85.92 279.99 84.96C281.643 84 282.817 82.5333 283.51 80.56H296.79C295.723 85.68 293.137 89.7067 289.03 92.64C284.923 95.52 279.697 96.96 273.35 96.96ZM260.87 66.64H284.23C283.803 63.6 282.63 61.3333 280.71 59.84C278.79 58.2933 276.203 57.52 272.95 57.52C269.697 57.52 267.03 58.2933 264.95 59.84C262.923 61.3867 261.563 63.6533 260.87 66.64ZM310.925 96V61.12H304.365V48H317.805V57.44H321.165C322.445 54.08 324.472 51.5733 327.245 49.92C330.018 48.2667 333.138 47.44 336.605 47.44H340.685V58.96H336.045C331.885 58.96 328.818 60.1333 326.845 62.48C324.925 64.8267 323.965 67.92 323.965 71.76V96H310.925ZM363.767 96.88C358.114 96.88 353.687 95.52 350.487 92.8C347.287 90.0267 345.687 86.4 345.687 81.92C345.687 77.1733 347.341 73.52 350.647 70.96C353.954 68.4 358.701 67.12 364.887 67.12H378.647V65.28C378.647 60.1067 375.554 57.52 369.367 57.52C363.981 57.52 360.727 59.3867 359.607 63.12H346.407C347.474 57.84 349.954 53.84 353.847 51.12C357.741 48.4 362.914 47.04 369.367 47.04C376.514 47.04 381.954 48.64 385.688 51.84C389.474 55.04 391.367 59.7067 391.367 65.84V82.88H397.607V96H384.167V88.16H380.807C379.154 90.9333 376.941 93.0933 374.168 94.64C371.394 96.1333 367.927 96.88 363.767 96.88ZM365.767 86.8C368.274 86.8 370.487 86.3467 372.407 85.44C374.327 84.5333 375.847 83.3333 376.968 81.84C378.087 80.2933 378.647 78.56 378.647 76.64V75.92H365.527C360.727 75.92 358.327 77.7067 358.327 81.28C358.327 83.04 358.994 84.4 360.327 85.36C361.661 86.32 363.474 86.8 365.767 86.8Z" fill="#0D0D0D" style="fill:#0D0D0D;fill:color(display-p3 0.0510 0.0510 0.0510);fill-opacity:1;"/>
<path fill-rule="evenodd" clip-rule="evenodd" d="M124.426 79.8246C127.881 82.7752 132.244 84.859 137.516 86.076L140.198 74.4572C136.137 73.5196 133.243 71.5766 131.596 68.6469C130.016 65.6757 129.71 62.0923 130.679 57.8967C131.647 53.701 133.481 50.6681 136.179 48.7981C138.943 46.8866 142.396 46.409 146.457 47.3466L149.22 35.7464C143.922 34.5232 139.033 34.471 134.634 35.6085C130.236 36.746 126.526 38.9491 123.505 42.2177C120.538 45.4987 118.464 49.6943 117.285 54.8044C116.092 59.9683 116.137 64.6814 117.42 68.9435C118.702 73.2056 121.038 76.8326 124.426 79.8246Z" fill="#0D0D0D" style="fill:#0D0D0D;fill:color(display-p3 0.0510 0.0510 0.0510);fill-opacity:1;"/>
<path fill-rule="evenodd" clip-rule="evenodd" d="M173.918 94.4801C179.781 95.8337 186.379 95.6006 191.291 93.2218C196.203 90.843 199.826 86.8069 202.16 81.1134L188.685 78.0025C186.33 82.5581 181.226 83.9293 176.6 82.8613L173.918 94.4801ZM200.238 52.6241C196.842 48.4405 191.27 45.4545 185.542 44.1319L182.859 55.7507C185.979 56.471 187.543 57.427 189.004 58.954C190.464 60.481 191.302 62.3741 191.517 64.6334L204.991 67.7443C205.22 61.8479 203.635 56.8078 200.238 52.6241Z" fill="#0D0D0D" style="fill:#0D0D0D;fill:color(display-p3 0.0510 0.0510 0.0510);fill-opacity:1;"/>
<path fill-rule="evenodd" clip-rule="evenodd" d="M137.516 86.076L140.198 74.4572C144.259 75.3948 147.599 74.9193 150.315 72.9685C153.032 71.0178 154.884 67.9042 155.853 63.7086C156.821 59.5129 156.497 56.0102 154.898 53.1197C153.299 50.2292 150.518 48.2842 146.457 47.3466L149.22 35.7464L185.542 44.1319L182.859 55.7507C179.739 55.0304 176.05 55.4252 173.325 57.2891C170.6 59.153 168.782 62.2458 167.788 66.5491C166.795 70.8524 167.127 74.442 168.786 77.3179C170.445 80.1939 171.974 81.7933 176.6 82.8613L173.918 94.4801L137.516 86.076Z" fill="#0D0D0D" style="fill:#0D0D0D;fill:color(display-p3 0.0510 0.0510 0.0510);fill-opacity:1;"/>
<path fill-rule="evenodd" clip-rule="evenodd" d="M142.681 41.7234L138.502 40.7586C133.204 39.5354 128.315 39.4832 123.916 40.6207C119.517 41.7582 115.808 43.9612 112.787 47.2298C109.82 50.5109 107.746 54.7065 106.566 59.8166C105.374 64.9805 105.419 69.6935 106.702 73.9556C107.984 78.2177 110.319 81.8447 113.708 84.8367C117.163 87.7873 121.526 89.8712 126.798 91.0882L163.2 99.4923C169.063 100.846 175.661 100.613 180.573 98.2339C181.382 97.8419 182.156 97.4048 182.896 96.9228C186.644 94.4798 189.492 90.8807 191.442 86.1255L177.967 83.0147C175.612 87.5702 170.508 88.9414 165.882 87.8734C161.256 86.8054 159.727 85.206 158.068 82.3301C156.409 79.4541 156.076 75.8645 157.07 71.5612C157.271 70.691 157.506 69.8702 157.775 69.0991C158.836 66.0573 160.433 63.7882 162.607 62.3013C163.527 61.6722 164.556 61.2106 165.636 60.9026C167.757 60.2979 170.074 60.2857 172.141 60.7629C175.261 61.4832 176.825 62.4391 178.285 63.9661C179.746 65.4931 180.584 67.3863 180.799 69.6456L194.273 72.7564C194.397 69.546 193.984 66.5894 193.034 63.8866C192.239 61.6255 191.068 59.542 189.52 57.6363C187.349 54.9621 184.289 52.7772 180.868 51.2033C178.937 50.315 176.89 49.6212 174.823 49.1441L167.67 47.4926L156.111 44.824L142.681 41.7234ZM129.48 79.4694C133.541 80.407 136.88 79.9315 139.597 77.9807C142.314 76.0299 144.166 72.9164 145.134 68.7207C146.103 64.525 145.779 61.0223 144.18 58.1319C142.581 55.2414 139.8 53.2964 135.739 52.3588C131.678 51.4212 128.225 51.8988 125.46 53.8102C122.762 55.6803 120.929 58.7131 119.96 62.9088C118.992 67.1045 119.298 70.6879 120.878 73.659C122.525 76.5888 125.419 78.5318 129.48 79.4694Z" fill="#E4B600" style="fill:#E4B600;fill:color(display-p3 0.8942 0.7154 0.0000);fill-opacity:1;"/>
<path d="M138.502 40.7586L142.681 41.7234L156.111 44.824L167.67 47.4926L174.823 49.1441C176.89 49.6212 178.937 50.315 180.868 51.2033C184.289 52.7772 187.349 54.9621 189.52 57.6363L201.076 53.0803C197.57 48.0214 189.969 45.2044 186.607 44.4282L150.298 36.0457C145.147 34.4314 138.273 35.217 135.48 35.8115L123.916 40.6207C128.315 39.4832 133.204 39.5354 138.502 40.7586Z" fill="#E4B600" style="fill:#E4B600;fill:color(display-p3 0.8942 0.7154 0.0000);fill-opacity:1;"/>
<path d="M189.52 57.6363C191.068 59.542 192.239 61.6255 193.034 63.8866L204.45 59.171C203.489 55.9744 201.8 53.7786 201.076 53.0803L189.52 57.6363Z" fill="#E4B600" style="fill:#E4B600;fill:color(display-p3 0.8942 0.7154 0.0000);fill-opacity:1;"/>
<path d="M193.034 63.8866C193.984 66.5894 194.397 69.546 194.273 72.7564L205.613 67.9381C206.048 64.2141 205.019 60.5417 204.45 59.171L193.034 63.8866Z" fill="#E4B600" style="fill:#E4B600;fill:color(display-p3 0.8942 0.7154 0.0000);fill-opacity:1;"/>
<path d="M177.967 83.0147L191.442 86.1255L202.586 81.0496L189.979 78.139L177.967 83.0147Z" fill="#E4B600" style="fill:#E4B600;fill:color(display-p3 0.8942 0.7154 0.0000);fill-opacity:1;"/>
<path d="M191.442 86.1255C189.492 90.8807 186.644 94.4798 182.896 96.9228L191.762 93.4234C194.71 92.1564 201.003 87.908 202.586 81.0496L191.442 86.1255Z" fill="#E4B600" style="fill:#E4B600;fill:color(display-p3 0.8942 0.7154 0.0000);fill-opacity:1;"/>
<path d="M123.916 40.6207C128.315 39.4832 133.204 39.5354 138.502 40.7586L142.681 41.7234L156.111 44.824L167.67 47.4926L174.823 49.1441C176.89 49.6212 178.937 50.315 180.868 51.2033C184.289 52.7772 187.349 54.9621 189.52 57.6363M123.916 40.6207C119.517 41.7582 115.808 43.9612 112.787 47.2298C109.82 50.5109 107.746 54.7065 106.566 59.8166C105.374 64.9805 105.419 69.6935 106.702 73.9556C107.984 78.2177 110.319 81.8447 113.708 84.8367C117.163 87.7873 121.526 89.8712 126.798 91.0882L163.2 99.4923C169.063 100.846 175.661 100.613 180.573 98.2339M123.916 40.6207L135.48 35.8115C138.273 35.217 145.147 34.4314 150.298 36.0457L186.607 44.4282C189.969 45.2044 197.57 48.0214 201.076 53.0803M180.573 98.2339L182.896 96.9228M180.573 98.2339C181.382 97.8419 182.156 97.4048 182.896 96.9228M191.442 86.1255L177.967 83.0147M191.442 86.1255L202.586 81.0496M191.442 86.1255C189.492 90.8807 186.644 94.4798 182.896 96.9228M177.967 83.0147C175.612 87.5702 170.508 88.9414 165.882 87.8734C161.256 86.8054 159.727 85.206 158.068 82.3301C156.409 79.4541 156.076 75.8645 157.07 71.5612C157.271 70.691 157.506 69.8702 157.775 69.0991C158.836 66.0573 160.433 63.7882 162.607 62.3013C163.527 61.6722 164.556 61.2106 165.636 60.9026C167.757 60.2979 170.074 60.2857 172.141 60.7629C175.261 61.4832 176.825 62.4391 178.285 63.9661C179.746 65.4931 180.584 67.3863 180.799 69.6456L194.273 72.7564M177.967 83.0147L189.979 78.139L202.586 81.0496M194.273 72.7564C194.397 69.546 193.984 66.5894 193.034 63.8866M194.273 72.7564L205.613 67.9381C206.048 64.2141 205.019 60.5417 204.45 59.171M193.034 63.8866C192.239 61.6255 191.068 59.542 189.52 57.6363M193.034 63.8866L204.45 59.171M189.52 57.6363L201.076 53.0803M201.076 53.0803C201.8 53.7786 203.489 55.9744 204.45 59.171M202.586 81.0496C201.003 87.908 194.71 92.1564 191.762 93.4234L182.896 96.9228M129.48 79.4694C133.541 80.407 136.88 79.9315 139.597 77.9807C142.314 76.0299 144.166 72.9164 145.134 68.7207C146.103 64.525 145.779 61.0223 144.18 58.1319C142.581 55.2414 139.8 53.2964 135.739 52.3588C131.678 51.4212 128.225 51.8988 125.46 53.8102C122.762 55.6803 120.929 58.7131 119.96 62.9088C118.992 67.1045 119.298 70.6879 120.878 73.659C122.525 76.5888 125.419 78.5318 129.48 79.4694Z" stroke="#0D0D0D" style="stroke:#0D0D0D;stroke:color(display-p3 0.0510 0.0510 0.0510);stroke-opacity:1;"/>
<rect x="388.108" y="86.92" width="6" height="6" rx="3" fill="#E4B600" style="fill:#E4B600;fill:color(display-p3 0.8942 0.7154 0.0000);fill-opacity:1;"/>
<rect x="71.1081" y="50.92" width="6" height="6" rx="3" fill="#E4B600" style="fill:#E4B600;fill:color(display-p3 0.8942 0.7154 0.0000);fill-opacity:1;"/>
</svg>
